<?xml version="1.0" encoding="UTF-8"?>
<svg version="1.1" xmlns="http://www.w3.org/2000/svg" width="192" height="192">
<path d="M0 0 C63.36 0 126.72 0 192 0 C192 63.36 192 126.72 192 192 C128.64 192 65.28 192 0 192 C0 128.64 0 65.28 0 0 Z " fill="#064046" transform="translate(0,0)"/>
<path d="M0 0 C11.88 0 23.76 0 36 0 C36 1.98 36 3.96 36 6 C26.43 6 16.86 6 7 6 C7 30.42 7 54.84 7 80 C46.6 80 86.2 80 127 80 C127 55.58 127 31.16 127 6 C101.26 6 75.52 6 49 6 C49 10.29 49 14.58 49 19 C47.02 19 45.04 19 43 19 C43 12.73 43 6.46 43 0 C72.7 0 102.4 0 133 0 C133 28.38 133 56.76 133 86 C89.11 86 45.22 86 0 86 C0 57.62 0 29.24 0 0 Z " fill="#F5F3EB" transform="translate(29,90)"/>
<path d="M0 0 C6.27 0 12.54 0 19 0 C19 1.98 19 3.96 19 6 C15.04 6 11.08 6 7 6 C7 22.83 7 39.66 7 57 C17.89 57 28.78 57 40 57 C40 52.38 40 47.76 40 43 C43.3 43 46.6 43 50 43 C50 44.98 50 46.96 50 49 C48.68 49 47.36 49 46 49 C46 51.64 46 54.28 46 57 C49.63 57 53.26 57 57 57 C57 50.07 57 43.14 57 36 C52.71 36 48.42 36 44 36 C44 30.72 44 25.44 44 20 C36.41 20 28.82 20 21 20 C21 27.59 21 35.18 21 43 C24.96 43 28.92 43 33 43 C33 44.98 33 46.96 33 49 C26.73 49 20.46 49 14 49 C14 37.12 14 25.24 14 13 C25.88 13 37.76 13 50 13 C50 18.28 50 23.56 50 29 C54.62 29 59.24 29 64 29 C64 40.22 64 51.44 64 63 C42.88 63 21.76 63 0 63 C0 50.79 0 38.58 0 26 C-2.31 26 -4.62 26 -7 26 C-7 24.02 -7 22.04 -7 20 C-4.69 20 -2.38 20 0 20 C0 13.4 0 6.8 0 0 Z " fill="#EFEEE7" transform="translate(85,103)"/>
<path d="M0 0 C2.5625 1.9375 2.5625 1.9375 4 5 C4.30336355 8.36270783 4.23523337 11.63485596 4 15 C5.32 15 6.64 15 8 15 C8.02887236 18.81248426 8.04675492 22.6249407 8.0625 26.4375 C8.07087891 27.52611328 8.07925781 28.61472656 8.08789062 29.73632812 C8.09272461 31.28803711 8.09272461 31.28803711 8.09765625 32.87109375 C8.10551147 34.30859985 8.10551147 34.30859985 8.11352539 35.77514648 C8 38 8 38 7 39 C5.00035018 39.08758003 2.9976389 39.10696576 0.99609375 39.09765625 C-0.21884766 39.09443359 -1.43378906 39.09121094 -2.68554688 39.08789062 C-3.96494141 39.07951172 -5.24433594 39.07113281 -6.5625 39.0625 C-7.84576172 39.05798828 -9.12902344 39.05347656 -10.45117188 39.04882812 C-13.63416022 39.03699545 -16.81705762 39.02051068 -20 39 C-21.2263757 36.54724859 -21.11415314 34.9494219 -21.09765625 32.2109375 C-21.09443359 31.26992187 -21.09121094 30.32890625 -21.08789062 29.359375 C-21.07951172 28.37453125 -21.07113281 27.3896875 -21.0625 26.375 C-21.05798828 25.38242188 -21.05347656 24.38984375 -21.04882812 23.3671875 C-21.03702145 20.9113984 -21.020554 18.45572896 -21 16 C-19.35 15.67 -17.7 15.34 -16 15 C-16.04640625 14.25234375 -16.0928125 13.5046875 -16.140625 12.734375 C-16.43751071 4.63363621 -16.43751071 4.63363621 -14.1875 1.375 C-9.47694663 -1.58591926 -5.2402019 -1.3336976 0 0 Z " fill="#F0EFE8" transform="translate(63,104)"/>
<path d="M0 0 C6.93 0 13.86 0 21 0 C21 2.31 21 4.62 21 7 C16.71 7 12.42 7 8 7 C8 9.31 8 11.62 8 14 C8.78246094 13.98839844 9.56492187 13.97679687 10.37109375 13.96484375 C11.38300781 13.95582031 12.39492188 13.94679688 13.4375 13.9375 C14.44683594 13.92589844 15.45617187 13.91429687 16.49609375 13.90234375 C19 14 19 14 20 15 C20 16.98 20 18.96 20 21 C15.71 21 11.42 21 7 21 C7 23.64 7 26.28 7 29 C11.62 29 16.24 29 21 29 C21 31.31 21 33.62 21 36 C17.68751813 36.02888146 14.37506833 36.04675799 11.0625 36.0625 C10.11697266 36.07087891 9.17144531 36.07925781 8.19726562 36.08789062 C6.84858398 36.09272461 6.84858398 36.09272461 5.47265625 36.09765625 C4.22367554 36.10551147 4.22367554 36.10551147 2.94946289 36.11352539 C1 36 1 36 0 35 C-0.08851529 32.40640678 -0.11525945 29.83960309 -0.09765625 27.24609375 C-0.09553383 26.08292381 -0.09553383 26.08292381 -0.09336853 24.89625549 C-0.08775345 22.40996506 -0.07519846 19.9237634 -0.0625 17.4375 C-0.05748694 15.75586067 -0.0529237 14.07421994 -0.04882812 12.39257812 C-0.03862832 8.26165671 -0.01905605 4.13092818 0 0 Z " fill="#E7E7E0" transform="translate(29,18)"/>
<path d="M0 0 C2.97 0 5.94 0 9 0 C10.65 2.97 12.3 5.94 14 9 C16.95724036 5.35587053 16.95724036 5.35587053 18.25 2.25 C19.11625 1.13625 19.11625 1.13625 20 0 C23.6875 -0.3125 23.6875 -0.3125 27 0 C26.26979774 5.17694681 23.88897469 8.79504791 21.1796875 13.18359375 C19.69765318 16.72182802 19.91667869 18.34203194 21 22 C22.59703508 25.21584806 22.59703508 25.21584806 24.5625 28.3125 C28 33.93561368 28 33.93561368 28 35 C22.89119171 35.88082902 22.89119171 35.88082902 20 35 C17.43451673 31.94074171 15.69753977 28.60084193 14 25 C13.6596875 25.721875 13.319375 26.44375 12.96875 27.1875 C11.48162587 30.03518451 10.06669738 32.53552823 8 35 C4.93941432 35.9324365 3.22829468 35.55660253 0 35 C1.85951078 29.83890886 4.76400586 25.52169175 7.734375 20.9375 C9.29608199 18.11685862 9.29608199 18.11685862 8.39453125 15.4453125 C6.94133943 12.89713861 5.48759388 10.36581424 3.9375 7.875 C2.27320598 5.19748052 1.00009199 3.00027598 0 0 Z " fill="#EFEEE7" transform="translate(54,18)"/>
<path d="M0 0 C4.22897154 1.94586331 7.03527128 4.63275948 10.3125 7.875 C10.87517578 8.40480469 11.43785156 8.93460938 12.01757812 9.48046875 C13.61328125 11.0546875 13.61328125 11.0546875 16 14 C15.64916992 16.18408203 15.64916992 16.18408203 15 18 C13.68 18.33 12.36 18.66 11 19 C9.02 17.02 7.04 15.04 5 13 C4.67 20.92 4.34 28.84 4 37 C2.02 37 0.04 37 -2 37 C-2.33 29.08 -2.66 21.16 -3 13 C-4.98 14.98 -6.96 16.96 -9 19 C-10.32 18.34 -11.64 17.68 -13 17 C-13 13 -13 13 -11.80664062 11.35253906 C-11.26201172 10.82885742 -10.71738281 10.30517578 -10.15625 9.765625 C-9.56972656 9.19199219 -8.98320312 8.61835938 -8.37890625 8.02734375 C-7.75886719 7.44082031 -7.13882813 6.85429687 -6.5 6.25 C-5.87996094 5.64800781 -5.25992188 5.04601562 -4.62109375 4.42578125 C-3.08955179 2.94136366 -1.54590226 1.46945655 0 0 Z " fill="#F2F1E9" transform="translate(143,16)"/>
<path d="M0 0 C7.92 0 15.84 0 24 0 C24 2.31 24 4.62 24 7 C21.36 7 18.72 7 16 7 C16 16.24 16 25.48 16 35 C13.69 35 11.38 35 9 35 C9 25.76 9 16.52 9 7 C6.03 7 3.06 7 0 7 C0 4.69 0 2.38 0 0 Z " fill="#EFEFE8" transform="translate(97,18)"/>
<path d="M0 0 C12.54 0 25.08 0 38 0 C38 7.26 38 14.52 38 22 C35.69 22 33.38 22 31 22 C31 16.72 31 11.44 31 6 C20.77 6 10.54 6 0 6 C0 4.02 0 2.04 0 0 Z " fill="#F2F0E9" transform="translate(111,103)"/>
<path d="M0 0 C11.45696741 -0.36957959 11.45696741 -0.36957959 13.87109375 1.2734375 C16.28479071 4.96497403 15.19916366 10.00418168 14.375 14.125 C13.92229107 17.59576848 14.7004625 19.78937795 16 23 C14.35 23 12.7 23 11 23 C10.01 20.03 9.02 17.06 8 14 C7.01 14 6.02 14 5 14 C5 16.97 5 19.94 5 23 C3.35 23 1.7 23 0 23 C0 15.41 0 7.82 0 0 Z " fill="#E6E7E1" transform="translate(61,60)"/>
<path d="M0 0 C11.55 0 23.1 0 35 0 C35 1.98 35 3.96 35 6 C25.76 6 16.52 6 7 6 C7 7.98 7 9.96 7 12 C6.67 12.33 6.34 12.66 6 13 C4.02 13 2.04 13 0 13 C0 8.71 0 4.42 0 0 Z " fill="#F4F2EB" transform="translate(43,150)"/>
<path d="M0 0 C2.31 0 4.62 0 7 0 C7 11.55 7 23.1 7 35 C4.69 35 2.38 35 0 35 C0 23.45 0 11.9 0 0 Z " fill="#EFEEE7" transform="translate(86,18)"/>
<path d="M0 0 C3.63999141 0.12085909 5.47227379 0.24630475 8.5 2.44140625 C10 4.62890625 10 4.62890625 10 7.62890625 C8.35 7.62890625 6.7 7.62890625 5 7.62890625 C4.67 6.96890625 4.34 6.30890625 4 5.62890625 C2.68 5.62890625 1.36 5.62890625 0 5.62890625 C0 9.91890625 0 14.20890625 0 18.62890625 C1.32 18.62890625 2.64 18.62890625 4 18.62890625 C4.33 17.63890625 4.66 16.64890625 5 15.62890625 C4.01 15.62890625 3.02 15.62890625 2 15.62890625 C2 13.97890625 2 12.32890625 2 10.62890625 C4.64 10.62890625 7.28 10.62890625 10 10.62890625 C10.47761194 17.67368237 10.47761194 17.67368237 8.5 21.62890625 C5.47652668 24.04768491 3.76312595 24.2194702 0 24.29296875 C-3.17788421 23.23781188 -4.26173253 21.42690696 -6 18.62890625 C-6.53125 15.47265625 -6.53125 15.47265625 -6.5 12.12890625 C-6.51546875 10.47375 -6.51546875 10.47375 -6.53125 8.78515625 C-5.82771902 4.60535457 -4.25766626 1.33883646 0 0 Z " fill="#E3E4DE" transform="translate(135,59.37109375)"/>
<path d="M0 0 C1.98 0 3.96 0 6 0 C7.00674459 3.26879616 8.00422489 6.5403471 9 9.8125 C9.28617188 10.74126953 9.57234375 11.67003906 9.8671875 12.62695312 C10.13789062 13.51962891 10.40859375 14.41230469 10.6875 15.33203125 C10.93886719 16.15421143 11.19023438 16.9763916 11.44921875 17.82348633 C12 20 12 20 12 23 C10.35 23 8.7 23 7 23 C6.67 21.68 6.34 20.36 6 19 C4.02 19 2.04 19 0 19 C-0.33 20.32 -0.66 21.64 -1 23 C-2.65 23 -4.3 23 -6 23 C-4.64741104 15.11583017 -2.45600648 7.60646666 0 0 Z " fill="#E7E7E1" transform="translate(85,60)"/>
<path d="M0 0 C4.29 0 8.58 0 13 0 C13 1.32 13 2.64 13 4 C10.36 4 7.72 4 5 4 C5 5.65 5 7.3 5 9 C7.31 9 9.62 9 12 9 C12 10.32 12 11.64 12 13 C9.69 13 7.38 13 5 13 C5 14.98 5 16.96 5 19 C7.64 19 10.28 19 13 19 C13 20.32 13 21.64 13 23 C8.71 23 4.42 23 0 23 C0 15.41 0 7.82 0 0 Z " fill="#E5E5DF" transform="translate(113,60)"/>
<path d="M0 0 C2.4375 1.3125 2.4375 1.3125 4 3 C4 3.99 4 4.98 4 6 C0.97580475 5.41196203 -2.01758453 4.77321882 -5 4 C-4.80755264 5.93674759 -4.80755264 5.93674759 -4 8 C-2.14508014 9.30491537 -2.14508014 9.30491537 0.0625 10.3125 C2.23828125 11.57421875 2.23828125 11.57421875 4 13 C4.75 16.625 4.75 16.625 4 20 C2.4375 21.9375 2.4375 21.9375 0 23 C-6.01809955 23.63348416 -6.01809955 23.63348416 -8.9375 21.75 C-10 20 -10 20 -10 16 C-8.68 16 -7.36 16 -6 16 C-5.67 16.66 -5.34 17.32 -5 18 C-3.68 18 -2.36 18 -1 18 C-1 17.01 -1 16.02 -1 15 C-2.11375 14.38125 -3.2275 13.7625 -4.375 13.125 C-6.63906215 11.86718769 -8.14615142 10.85384858 -10 9 C-10.3267107 5.92891945 -10.48138276 3.84949899 -8.9375 1.125 C-5.88405803 -0.64796631 -3.45262038 -0.36343372 0 0 Z " fill="#EAEAE4" transform="translate(38,60)"/>
<path d="M0 0 C1.65 0 3.3 0 5 0 C5.99 2.64 6.98 5.28 8 8 C9.32 5.36 10.64 2.72 12 0 C13.65 0 15.3 0 17 0 C16.03727407 3.11034533 15.07871669 5.8646073 13.4375 8.6875 C11.41043733 13.35855747 11.26029747 17.95561448 11 23 C9.35 23 7.7 23 6 23 C5.98582031 22.39414063 5.97164062 21.78828125 5.95703125 21.1640625 C5.60309929 14.94633895 4.12555704 10.54170548 1.05859375 5.12890625 C0 3 0 3 0 0 Z " fill="#E2E3DD" transform="translate(147,60)"/>
<path d="M0 0 C4.95 0 9.9 0 15 0 C15 1.32 15 2.64 15 4 C13.35 4 11.7 4 10 4 C10 10.27 10 16.54 10 23 C8.35 23 6.7 23 5 23 C5 16.73 5 10.46 5 4 C3.35 4 1.7 4 0 4 C0 2.68 0 1.36 0 0 Z " fill="#E1E2DC" transform="translate(96,60)"/>
<path d="M0 0 C4.95 0 9.9 0 15 0 C15 1.32 15 2.64 15 4 C13.35 4 11.7 4 10 4 C10 10.27 10 16.54 10 23 C8.35 23 6.7 23 5 23 C5 16.73 5 10.46 5 4 C3.35 4 1.7 4 0 4 C0 2.68 0 1.36 0 0 Z " fill="#E4E5DF" transform="translate(44,60)"/>
<path d="M0 0 C1.875 1.5625 1.875 1.5625 3 4 C3.1875 7.75 3.1875 7.75 3 11 C-0.96 11 -4.92 11 -9 11 C-9.36180905 3.64321608 -9.36180905 3.64321608 -7.875 1 C-5.06836961 -0.49686954 -3.12242157 -0.45535315 0 0 Z " fill="#084147" transform="translate(60,107)"/>
<path d="M0 0 C1.67542976 0.28604898 3.34385343 0.61781233 5 1 C5.33 2.65 5.66 4.3 6 6 C5.34 6 4.68 6 4 6 C4 8.31 4 10.62 4 13 C2.68 13 1.36 13 0 13 C-1.4617773 8.6146681 -2.44935236 5.47981638 -1 1 C-0.67 0.67 -0.34 0.34 0 0 Z " fill="#194D52" transform="translate(55,124)"/>
<path d="M0 0 C1.65 0 3.3 0 5 0 C5.625 2.375 5.625 2.375 6 5 C5.34 5.66 4.68 6.32 4 7 C2.68 7 1.36 7 0 7 C0 4.69 0 2.38 0 0 Z " fill="#29585D" transform="translate(66,64)"/>
<path d="M0 0 C0.66 0.33 1.32 0.66 2 1 C2.59355614 3.64860427 2.74209269 6.29197322 3 9 C1.68 9 0.36 9 -1 9 C-0.67 6.03 -0.34 3.06 0 0 Z " fill="#3F666A" transform="translate(87,66)"/>
</svg>
